<svg width="1378" height="329" viewBox="0 0 1378 329" fill="none" xmlns="http://www.w3.org/2000/svg">
<path d="M14.9004 273.209C30.4436 301.834 61.7387 327.726 121.888 327.726C182.037 327.726 213.332 301.834 228.875 273.209H14.9004Z" fill="#FDC002"/>
<path d="M14.901 273.208H228.855C239.329 253.909 242.646 233.401 242.813 218.713H0.943359C1.11027 233.401 4.42755 253.909 14.901 273.208Z" fill="#FC9301"/>
<path d="M0.944712 164.238V217.607C0.944712 217.982 0.944712 218.358 0.944712 218.733H242.814C242.814 218.358 242.814 217.961 242.814 217.607V164.238H0.923828H0.944712Z" fill="#FB6900"/>
<path d="M0.943359 110.892V164.26H242.834V110.892C242.834 110.516 242.834 110.141 242.834 109.765H0.964243C0.964243 110.141 0.964243 110.516 0.964243 110.892" fill="#E42C01"/>
<path d="M0.943359 109.765H242.813C242.646 95.098 239.329 74.5684 228.855 55.2698H14.901C4.42755 74.5476 1.11027 95.0771 0.943359 109.765Z" fill="#C51600"/>
<path d="M14.9004 55.2905H228.875C213.332 26.6659 182.037 0.774414 121.888 0.774414C61.7387 0.774414 30.4436 26.6659 14.9004 55.2905Z" fill="#A40000"/>
<path d="M605.876 4.45581H650.801L768.164 322.274H724.579L690.794 225.364H564.118L529.907 322.274H489L605.876 4.45581V4.45581ZM575.622 192.919H679.655L643.192 86.2692C636.983 68.4942 628.947 41.3449 628.947 41.3449H628.034C628.034 41.3449 619.573 68.0072 613.364 86.2692L575.562 192.919H575.622Z" fill="#FFFFFF"/>
<path d="M775.197 207.586C775.197 140.93 818.782 86.6921 884.099 86.6921C953.008 86.6921 989.897 140.017 989.897 216.047H812.086C814.765 262.737 840.088 298.287 886.352 298.287C919.71 298.287 941.929 282.277 949.903 251.171H985.027C974.374 300.478 938.337 328.541 886.352 328.541C816.104 328.541 775.197 274.303 775.197 207.647M812.999 188.959H951.242C949.051 143.182 925.432 115.181 884.099 115.181C842.766 115.181 818.295 147.2 812.999 188.959" fill="#FFFFFF"/>
<path d="M1061.02 130.69H1061.93C1075.69 108.471 1099.73 89.7834 1130.41 89.7834C1137.11 89.7834 1140.64 90.6357 1145.08 92.4619V127.16H1143.74C1138.38 125.394 1134.85 124.968 1127.73 124.968C1092.18 124.968 1061.08 151.631 1061.08 194.79V322.38H1025.04V92.5837H1061.08V130.812L1061.02 130.69Z" fill="#FFFFFF"/>
<path d="M1155.68 207.586C1155.68 140.93 1198.36 86.6921 1266.84 86.6921C1335.32 86.6921 1377.5 140.93 1377.5 207.586C1377.5 274.242 1335.75 328.48 1266.84 328.48C1197.93 328.48 1155.68 274.242 1155.68 207.586M1340.62 207.586C1340.62 156.94 1315.72 116.459 1266.84 116.459C1217.96 116.459 1192.63 156.94 1192.63 207.586C1192.63 258.233 1217.96 298.287 1266.84 298.287C1315.72 298.287 1340.62 258.293 1340.62 207.586Z" fill="#FFFFFF"/>
</svg>
